# xmcd CD database file
#
# Track frame offsets:
#	150
#	18397
#	38525
#	62942
#	85032
#	109992
#	138537
#	157945
#	182032
#	201442
#	221395
#	241832
#	259192
#	278565
#	295865
#
# Disc length: 4253 seconds
#
# Revision: 0
# Processed by: cddbd v1.5.1PL2 Copyright (c) Steve Scherf et al.
# Submitted via: CDex 1.51
#
DISCID=d3109b0f
DTITLE=THE STREET SLIDERS - THE LEGEND  THE STREET SLIDERS  GOLDEN 80's COLLECTION
DYEAR=2003
DGENRE=Rock
TTITLE0=マスターベイション
TTITLE1=のら犬にさえなれない
TTITLE2=すれちがい
TTITLE3=So Heavy
TTITLE4=Dancin' Doll
TTITLE5=道化者のゆううつ
TTITLE6=Easy Come, Easy Go
TTITLE7=チャンドラー
TTITLE8=Let's go down the street
TTITLE9=Boys Jump The Midnight
TTITLE10=Special Woman
TTITLE11=Back To Back
TTITLE12=Angel Duster
TTITLE13=風が強い日
TTITLE14=おかかえ運転手にはなりたくない
EXTD=YEAR: 2003
EXTT0=
EXTT1=
EXTT2=
EXTT3=
EXTT4=
EXTT5=
EXTT6=
EXTT7=
EXTT8=
EXTT9=
EXTT10=
EXTT11=
EXTT12=
EXTT13=
EXTT14=
PLAYORDER=
